<svg width="19" height="14" viewBox="0 0 19 14" fill="none" xmlns="http://www.w3.org/2000/svg">
<g clip-path="url(#clip0_571_3229)">
<mask id="mask0_571_3229" style="mask-type:luminance" maskUnits="userSpaceOnUse" x="0" y="0" width="19" height="14">
<path d="M18.61 0H0V13.67H18.61V0Z" fill="white"/>
</mask>
<g mask="url(#mask0_571_3229)">
<path fill-rule="evenodd" clip-rule="evenodd" d="M18.2678 0.247815C18.3677 0.334988 18.4493 0.441146 18.5077 0.560117C18.5662 0.679089 18.6004 0.808497 18.6084 0.940818C18.6164 1.07314 18.598 1.20573 18.5543 1.33088C18.5106 1.45603 18.4425 1.57125 18.3538 1.66982L7.83785 13.3399C7.74873 13.4387 7.64077 13.5189 7.5203 13.5755C7.39982 13.6321 7.26925 13.6641 7.13625 13.6696C7.00325 13.6751 6.87048 13.654 6.74575 13.6075C6.62101 13.561 6.50681 13.4901 6.40985 13.3989L0.325846 7.67082C0.225996 7.5818 0.144842 7.47382 0.0871053 7.35316C0.0293688 7.23249 -0.00379755 7.10155 -0.0104647 6.96794C-0.0171318 6.83434 0.00283342 6.70075 0.0482697 6.57493C0.0937061 6.44912 0.163706 6.33359 0.254199 6.23508C0.344691 6.13657 0.45387 6.05703 0.575382 6.0011C0.696895 5.94516 0.828317 5.91395 0.962004 5.90927C1.09569 5.90459 1.22897 5.92655 1.3541 5.97385C1.47922 6.02116 1.59369 6.09287 1.69085 6.18482L6.41085 10.4309C6.60787 10.6079 6.86711 10.6996 7.13165 10.6857C7.39619 10.6718 7.64442 10.5536 7.82185 10.3569L16.8658 0.329815C17.0417 0.135101 17.287 0.0172806 17.5489 0.0017543C17.8107 -0.013772 18.0682 0.0742397 18.2658 0.246815L18.2678 0.247815Z" fill="#00AEA5"/>
</g>
</g>
<defs>
<clipPath id="clip0_571_3229">
<rect width="19" height="14" fill="white"/>
</clipPath>
</defs>
</svg>
