<svg width="247" height="83" viewBox="0 0 247 83" fill="none" xmlns="http://www.w3.org/2000/svg">
<g clip-path="url(#clip0_104_2742)">
<path d="M101.541 24.7502H101.491L99.1809 37.8302H96.6309L100.671 17.1902L107.471 32.7902L114.271 17.1902L118.311 37.8302H115.761L113.451 24.7502H113.401L107.471 38.2502L101.531 24.7502H101.541Z" fill="white"/>
<path d="M123.67 18.02H134.31V20.28H126.14V25.82H134.07V28.08H126.14V35.56H134.31V37.82H123.67V18.02Z" fill="white"/>
<path d="M154.921 21.8101C153.501 20.5501 151.561 19.8701 149.691 19.8701C145.251 19.8701 141.861 23.5701 141.861 27.9601C141.861 32.3501 145.221 36.0001 149.631 36.0001C151.571 36.0001 153.441 35.2601 154.911 33.9501V36.8701C153.391 37.7601 151.441 38.2601 149.711 38.2601C144.061 38.2601 139.391 33.7701 139.391 28.0501C139.391 22.3301 144.091 17.6201 149.921 17.6201C151.651 17.6201 153.411 18.0401 154.911 18.9601V21.8201L154.921 21.8101Z" fill="white"/>
<path d="M172.691 26.01V18.03H175.161V37.83H172.691V28.32H163.261V37.83H160.791V18.03H163.261V26.01H172.691Z" fill="white"/>
<path d="M184.691 32.8602L182.431 37.8202H179.781L189.231 17.1802L198.681 37.8202H196.031L193.771 32.8602H184.681H184.691ZM189.231 22.5902L185.711 30.6002H192.751L189.231 22.5902Z" fill="white"/>
<path d="M203.24 17.0801L218.1 32.6501V18.0201H220.57V38.6301L205.71 23.0601V37.8201H203.24V17.0701V17.0801Z" fill="white"/>
<path d="M246.592 27.9201C246.592 33.8001 241.942 38.2401 236.222 38.2401C230.502 38.2401 225.852 33.8001 225.852 27.9201C225.852 22.0401 230.552 17.6001 236.222 17.6001C241.892 17.6001 246.592 22.2501 246.592 27.9201ZM244.122 27.9201C244.122 23.5601 240.862 19.9101 236.222 19.9101C231.582 19.9101 228.322 23.5601 228.322 27.9201C228.322 32.2801 231.942 35.9301 236.222 35.9301C240.502 35.9301 244.122 32.4401 244.122 27.9201Z" fill="white"/>
<path d="M113.122 51.72C111.702 50.46 109.762 49.78 107.892 49.78C103.452 49.78 100.062 53.48 100.062 57.87C100.062 62.26 103.422 65.91 107.832 65.91C109.772 65.91 111.642 65.17 113.112 63.86V66.78C111.592 67.67 109.642 68.17 107.912 68.17C102.262 68.17 97.5918 63.68 97.5918 57.96C97.5918 52.24 102.292 47.53 108.122 47.53C109.852 47.53 111.612 47.95 113.112 48.87V51.73L113.122 51.72Z" fill="white"/>
<path d="M131.521 67.7402H128.531L122.701 59.3602H121.681V67.7402H119.211V47.9402H122.201C123.961 47.9402 125.851 47.9702 127.431 48.8602C129.081 49.8302 130.031 51.7002 130.031 53.5902C130.031 56.4302 128.141 58.7902 125.281 59.1302L131.531 67.7402H131.521ZM121.671 57.3102H122.461C124.981 57.3102 127.711 56.8402 127.711 53.6902C127.711 50.5402 124.771 50.1502 122.331 50.1502H121.671V57.3202V57.3102Z" fill="white"/>
<path d="M155.97 57.84C155.97 63.72 151.32 68.16 145.6 68.16C139.88 68.16 135.23 63.72 135.23 57.84C135.23 51.96 139.93 47.52 145.6 47.52C151.27 47.52 155.97 52.17 155.97 57.84ZM153.5 57.84C153.5 53.48 150.24 49.83 145.6 49.83C140.96 49.83 137.7 53.48 137.7 57.84C137.7 62.2 141.32 65.85 145.6 65.85C149.88 65.85 153.5 62.36 153.5 57.84Z" fill="white"/>
<path d="M170.301 51.7C169.561 50.47 168.621 49.83 167.121 49.83C165.541 49.83 163.811 50.91 163.811 52.64C163.811 54.19 165.331 55 166.571 55.48L167.991 56.03C170.801 57.13 172.901 58.68 172.901 61.99C172.901 65.59 170.121 68.16 166.571 68.16C163.371 68.16 160.871 65.8 160.451 62.62L162.941 62.09C162.911 64.27 164.651 65.85 166.771 65.85C168.891 65.85 170.421 64.06 170.421 61.99C170.421 59.92 168.711 58.94 167.011 58.23L165.641 57.65C163.381 56.68 161.331 55.39 161.331 52.63C161.331 49.43 164.171 47.51 167.161 47.51C169.371 47.51 171.181 48.59 172.251 50.5L170.281 51.68L170.301 51.7Z" fill="white"/>
<path d="M187.551 51.7C186.811 50.47 185.871 49.83 184.371 49.83C182.791 49.83 181.061 50.91 181.061 52.64C181.061 54.19 182.581 55 183.821 55.48L185.241 56.03C188.051 57.13 190.151 58.68 190.151 61.99C190.151 65.59 187.371 68.16 183.821 68.16C180.621 68.16 178.121 65.8 177.701 62.62L180.191 62.09C180.161 64.27 181.901 65.85 184.021 65.85C186.141 65.85 187.671 64.06 187.671 61.99C187.671 59.92 185.961 58.94 184.261 58.23L182.891 57.65C180.631 56.68 178.581 55.39 178.581 52.63C178.581 49.43 181.421 47.51 184.411 47.51C186.621 47.51 188.431 48.59 189.501 50.5L187.531 51.68L187.551 51.7Z" fill="white"/>
<path d="M52.1504 82.8999C36.0204 82.8999 22.9004 69.7799 22.9004 53.6499C22.9004 37.5199 36.0204 24.3999 52.1504 24.3999C68.2804 24.3999 81.4004 37.5199 81.4004 53.6499C81.4004 69.7799 68.2804 82.8999 52.1504 82.8999ZM52.1504 26.8199C37.3604 26.8199 25.3204 38.8599 25.3204 53.6499C25.3204 68.4399 37.3604 80.4799 52.1504 80.4799C66.9404 80.4799 78.9804 68.4399 78.9804 53.6499C78.9804 38.8599 66.9404 26.8199 52.1504 26.8199Z" fill="#00AEA5"/>
<path d="M26.78 62.4899C12.02 62.4899 0 50.4799 0 35.7099C0 20.9399 12.02 8.92993 26.78 8.92993C41.54 8.92993 53.56 20.9499 53.56 35.7099C53.56 50.4699 41.54 62.4899 26.78 62.4899ZM26.78 11.3399C13.35 11.3399 2.42 22.2699 2.42 35.6999C2.42 49.1299 13.35 60.0599 26.78 60.0599C40.21 60.0599 51.14 49.1299 51.14 35.6999C51.14 22.2699 40.21 11.3399 26.78 11.3399Z" fill="#00AEA5"/>
<path d="M51.3903 41.14C40.0503 41.14 30.8203 31.91 30.8203 20.57C30.8203 9.23 40.0503 0 51.3903 0C62.7303 0 71.9603 9.23 71.9603 20.57C71.9603 31.91 62.7303 41.14 51.3903 41.14ZM51.3903 2.42C41.3803 2.42 33.2403 10.56 33.2403 20.57C33.2403 30.58 41.3803 38.72 51.3903 38.72C61.4003 38.72 69.5403 30.58 69.5403 20.57C69.5403 10.56 61.4003 2.42 51.3903 2.42Z" fill="#00AEA5"/>
</g>
<defs>
<clipPath id="clip0_104_2742">
<rect width="246.59" height="82.9" fill="white"/>
</clipPath>
</defs>
</svg>
