<svg width="89" height="91" viewBox="0 0 89 91" fill="none" xmlns="http://www.w3.org/2000/svg">
<g clip-path="url(#clip0_235_909)">
<path d="M86.6151 71.6436C93.222 55.6449 85.6476 37.3032 69.6971 30.6763C53.7467 24.0494 35.4604 31.6468 28.8535 47.6455C22.2466 63.6442 29.821 81.9859 45.7715 88.6128C61.7219 95.2397 80.0082 87.6423 86.6151 71.6436Z" fill="white" fill-opacity="0.2"/>
<path d="M28.4092 10.3539C12.7498 10.3539 0 23.1276 0 38.8491C0 54.5706 12.7498 67.3444 28.4092 67.3444C44.0687 67.3444 56.8185 54.556 56.8185 38.8491C56.8185 23.1423 44.0687 10.3539 28.4092 10.3539Z" fill="white" fill-opacity="0.2"/>
<path d="M56.862 0C45.165 0 35.6465 9.5473 35.6465 21.2798C35.6465 33.0122 45.165 42.5596 56.862 42.5596C68.5591 42.5596 78.0776 33.0122 78.0776 21.2798C78.0776 9.5473 68.5591 0 56.862 0Z" fill="white" fill-opacity="0.2"/>
</g>
<defs>
<clipPath id="clip0_235_909">
<rect width="89" height="91" fill="white"/>
</clipPath>
</defs>
</svg>
