<svg width="131" height="44" viewBox="0 0 131 44" fill="none" xmlns="http://www.w3.org/2000/svg">
<g clip-path="url(#clip0_183_931)">
<path d="M53.9424 13.1363H53.9158L52.6887 20.0787H51.334L53.4802 9.12378L57.0927 17.4036L60.7052 9.12378L62.8514 20.0787H61.4967L60.2695 13.1363H60.243L57.0927 20.3016L53.9371 13.1363H53.9424Z" fill="#4C4948"/>
<path d="M65.6992 9.56433H71.3517V10.7638H67.0114V13.7043H71.2242V14.9038H67.0114V18.8739H71.3517V20.0734H65.6992V9.56433Z" fill="#4C4948"/>
<path d="M82.301 11.5758C81.5467 10.9071 80.516 10.5461 79.5226 10.5461C77.1639 10.5461 75.363 12.5099 75.363 14.84C75.363 17.17 77.1479 19.1073 79.4907 19.1073C80.5214 19.1073 81.5148 18.7145 82.2957 18.0192V19.5691C81.4882 20.0414 80.4523 20.3068 79.5332 20.3068C76.5317 20.3068 74.0508 17.9237 74.0508 14.8878C74.0508 11.8518 76.5476 9.35193 79.6448 9.35193C80.5639 9.35193 81.4989 9.57485 82.2957 10.0631V11.5811L82.301 11.5758Z" fill="#4C4948"/>
<path d="M91.7398 13.805V9.56958H93.052V20.0786H91.7398V15.0311H86.7301V20.0786H85.418V9.56958H86.7301V13.805H91.7398Z" fill="#4C4948"/>
<path d="M98.1162 17.4407L96.9156 20.0733H95.5078L100.528 9.11841L105.548 20.0733H104.141L102.94 17.4407H98.1109H98.1162ZM100.528 11.9898L98.6581 16.2412H102.398L100.528 11.9898Z" fill="#4C4948"/>
<path d="M107.971 9.06537L115.865 17.3293V9.56428H117.177V20.5032L109.283 12.2393V20.0733H107.971V9.06006V9.06537Z" fill="#4C4948"/>
<path d="M131 14.8188C131 17.9396 128.53 20.2962 125.491 20.2962C122.453 20.2962 119.982 17.9396 119.982 14.8188C119.982 11.6979 122.479 9.34131 125.491 9.34131C128.504 9.34131 131 11.8093 131 14.8188ZM129.688 14.8188C129.688 12.5046 127.956 10.5674 125.491 10.5674C123.026 10.5674 121.295 12.5046 121.295 14.8188C121.295 17.1329 123.218 19.0701 125.491 19.0701C127.765 19.0701 129.688 17.2178 129.688 14.8188Z" fill="#4C4948"/>
<path d="M60.094 27.4509C59.3396 26.7822 58.309 26.4213 57.3156 26.4213C54.9569 26.4213 53.1559 28.3851 53.1559 30.7151C53.1559 33.0451 54.9409 34.9824 57.2837 34.9824C58.3143 34.9824 59.3078 34.5897 60.0887 33.8944V35.4442C59.2812 35.9166 58.2453 36.1819 57.3262 36.1819C54.3247 36.1819 51.8438 33.7988 51.8438 30.7629C51.8438 27.7269 54.3406 25.2271 57.4378 25.2271C58.3568 25.2271 59.2918 25.45 60.0887 25.9383V27.4562L60.094 27.4509Z" fill="#4C4948"/>
<path d="M69.8697 35.9536H68.2813L65.1841 31.5059H64.6423V35.9536H63.3301V25.4446H64.9185C65.8535 25.4446 66.8576 25.4605 67.6969 25.9329C68.5735 26.4477 69.0782 27.4402 69.0782 28.4434C69.0782 29.9507 68.0741 31.2033 66.5547 31.3838L69.875 35.9536H69.8697ZM64.6369 30.4178H65.0566C66.3954 30.4178 67.8457 30.1683 67.8457 28.4964C67.8457 26.8246 66.2838 26.6176 64.9876 26.6176H64.6369V30.4231V30.4178Z" fill="#4C4948"/>
<path d="M82.8579 30.6991C82.8579 33.82 80.3876 36.1766 77.3489 36.1766C74.3101 36.1766 71.8398 33.82 71.8398 30.6991C71.8398 27.5783 74.3367 25.2217 77.3489 25.2217C80.361 25.2217 82.8579 27.6897 82.8579 30.6991ZM81.5457 30.6991C81.5457 28.385 79.8139 26.4477 77.3489 26.4477C74.8839 26.4477 73.152 28.385 73.152 30.6991C73.152 33.0132 75.0751 34.9505 77.3489 34.9505C79.6226 34.9505 81.5457 33.0982 81.5457 30.6991Z" fill="#4C4948"/>
<path d="M90.4711 27.4403C90.0779 26.7875 89.5786 26.4478 88.7817 26.4478C87.9423 26.4478 87.0233 27.021 87.0233 27.9392C87.0233 28.7619 87.8308 29.1918 88.4895 29.4466L89.2439 29.7385C90.7367 30.3223 91.8523 31.145 91.8523 32.9018C91.8523 34.8126 90.3754 36.1766 88.4895 36.1766C86.7895 36.1766 85.4614 34.924 85.2383 33.2362L86.5611 32.9549C86.5451 34.112 87.4695 34.9506 88.5958 34.9506C89.722 34.9506 90.5348 34.0005 90.5348 32.9018C90.5348 31.8032 89.6264 31.283 88.7233 30.9062L87.9955 30.5983C86.7948 30.0835 85.7058 29.3988 85.7058 27.9339C85.7058 26.2355 87.2145 25.2164 88.8029 25.2164C89.977 25.2164 90.9386 25.7897 91.507 26.8034L90.4604 27.4297L90.4711 27.4403Z" fill="#4C4948"/>
<path d="M99.6351 27.4403C99.242 26.7875 98.7426 26.4478 97.9458 26.4478C97.1064 26.4478 96.1873 27.021 96.1873 27.9392C96.1873 28.7619 96.9948 29.1918 97.6536 29.4466L98.4079 29.7385C99.9007 30.3223 101.016 31.145 101.016 32.9018C101.016 34.8126 99.5395 36.1766 97.6536 36.1766C95.9536 36.1766 94.6255 34.924 94.4023 33.2362L95.7251 32.9549C95.7092 34.112 96.6336 34.9506 97.7598 34.9506C98.8861 34.9506 99.6989 34.0005 99.6989 32.9018C99.6989 31.8032 98.7904 31.283 97.8873 30.9062L97.1595 30.5983C95.9589 30.0835 94.8698 29.3988 94.8698 27.9339C94.8698 26.2355 96.3786 25.2164 97.967 25.2164C99.1411 25.2164 100.103 25.7897 100.671 26.8034L99.6245 27.4297L99.6351 27.4403Z" fill="#4C4948"/>
<path d="M27.705 44C19.136 44 12.166 37.0364 12.166 28.4753C12.166 19.9141 19.136 12.9506 27.705 12.9506C36.274 12.9506 43.2439 19.9141 43.2439 28.4753C43.2439 37.0364 36.274 44 27.705 44ZM27.705 14.235C19.8478 14.235 13.4516 20.6254 13.4516 28.4753C13.4516 36.3252 19.8478 42.7156 27.705 42.7156C35.5621 42.7156 41.9583 36.3252 41.9583 28.4753C41.9583 20.6254 35.5621 14.235 27.705 14.235Z" fill="#00AEA5"/>
<path d="M14.2268 33.1672C6.38558 33.1672 0 26.7928 0 18.9535C0 11.1142 6.38558 4.73975 14.2268 4.73975C22.068 4.73975 28.4536 11.1195 28.4536 18.9535C28.4536 26.7875 22.068 33.1672 14.2268 33.1672ZM14.2268 6.01888C7.09214 6.01888 1.28562 11.8201 1.28562 18.9482C1.28562 26.0763 7.09214 31.8775 14.2268 31.8775C21.3614 31.8775 27.1679 26.0763 27.1679 18.9482C27.1679 11.8201 21.3614 6.01888 14.2268 6.01888Z" fill="#00AEA5"/>
<path d="M27.3008 21.8355C21.2764 21.8355 16.373 16.9366 16.373 10.9177C16.373 4.89891 21.2764 0 27.3008 0C33.3251 0 38.2285 4.89891 38.2285 10.9177C38.2285 16.9366 33.3251 21.8355 27.3008 21.8355ZM27.3008 1.28444C21.983 1.28444 17.6587 5.60483 17.6587 10.9177C17.6587 16.2306 21.983 20.551 27.3008 20.551C32.6186 20.551 36.9429 16.2306 36.9429 10.9177C36.9429 5.60483 32.6186 1.28444 27.3008 1.28444Z" fill="#00AEA5"/>
</g>
<defs>
<clipPath id="clip0_183_931">
<rect width="131" height="44" fill="white"/>
</clipPath>
</defs>
</svg>
