<svg width="115" height="113" viewBox="0 0 115 113" fill="none" xmlns="http://www.w3.org/2000/svg">
<path d="M64.8208 63.4349C52.4581 63.4349 42.4023 53.3955 42.4023 41.0529C42.4023 28.7102 52.4581 18.6708 64.8208 18.6708C77.1835 18.6708 87.2392 28.7102 87.2392 41.0529C87.2392 53.3955 77.1835 63.4349 64.8208 63.4349ZM64.8208 20.5226C53.4851 20.5226 44.2571 29.7356 44.2571 41.0529C44.2571 52.3702 53.4851 61.5831 64.8208 61.5831C76.1564 61.5831 85.3844 52.3702 85.3844 41.0529C85.3844 29.7356 76.1564 20.5226 64.8208 20.5226Z" fill="#00AEA5"/>
<path d="M45.3769 47.8172C34.0642 47.8172 24.8516 38.6272 24.8516 27.3252C24.8516 16.0232 34.0642 6.83322 45.3769 6.83322C56.6895 6.83322 65.9022 16.0309 65.9022 27.3252C65.9022 38.6195 56.6895 47.8172 45.3769 47.8172ZM45.3769 8.67735C35.0836 8.67735 26.7064 17.041 26.7064 27.3176C26.7064 37.5942 35.0836 45.9578 45.3769 45.9578C55.6702 45.9578 64.0474 37.5942 64.0474 27.3176C64.0474 17.041 55.6702 8.67735 45.3769 8.67735Z" fill="#00AEA5"/>
<path d="M64.2384 31.4802C55.5469 31.4802 48.4727 24.4175 48.4727 15.7401C48.4727 7.06278 55.5469 0 64.2384 0C72.9298 0 80.0041 7.06278 80.0041 15.7401C80.0041 24.4175 72.9298 31.4802 64.2384 31.4802ZM64.2384 1.85178C56.5663 1.85178 50.3274 8.08049 50.3274 15.7401C50.3274 23.3998 56.5663 29.6285 64.2384 29.6285C71.9104 29.6285 78.1493 23.3998 78.1493 15.7401C78.1493 8.08049 71.9104 1.85178 64.2384 1.85178Z" fill="#00AEA5"/>
<path d="M3.76323 79.7751H3.72491L1.95443 89.7839H0L3.09642 73.9902L8.30823 85.9273L13.52 73.9902L16.6164 89.7839H14.662L12.8915 79.7751H12.8532L8.30823 90.1052L3.75556 79.7751H3.76323Z" fill="#4C4948"/>
<path d="M20.7246 74.6253H28.8795V76.3546H22.6177V80.5938H28.6956V82.3232H22.6177V88.0468H28.8795V89.7762H20.7246V74.6253Z" fill="#4C4948"/>
<path d="M44.6763 77.5254C43.5879 76.5612 42.101 76.0409 40.6678 76.0409C37.2648 76.0409 34.6665 78.8721 34.6665 82.2314C34.6665 85.5906 37.2418 88.3836 40.6218 88.3836C42.1087 88.3836 43.5419 87.8173 44.6686 86.8149V89.0493C43.5036 89.7303 42.0091 90.1129 40.6831 90.1129C36.3527 90.1129 32.7734 86.6772 32.7734 82.3002C32.7734 77.9233 36.3757 74.3192 40.8441 74.3192C42.17 74.3192 43.5189 74.6406 44.6686 75.3446V77.533L44.6763 77.5254Z" fill="#4C4948"/>
<path d="M58.2964 80.7392V74.6329H60.1896V89.7839H58.2964V82.5068H51.0689V89.7839H49.1758V74.6329H51.0689V80.7392H58.2964Z" fill="#4C4948"/>
<path d="M67.4937 85.9808L65.7615 89.7762H63.7305L70.9733 73.9825L78.2162 89.7762H76.1851L74.453 85.9808H67.486H67.4937ZM70.9733 78.1222L68.2755 84.2514H73.6712L70.9733 78.1222Z" fill="#4C4948"/>
<path d="M81.7109 73.906L93.1003 85.8201V74.6253H94.9934V90.396L83.604 78.4819V89.7762H81.7109V73.8983V73.906Z" fill="#4C4948"/>
<path d="M114.935 82.2007C114.935 86.7001 111.371 90.0976 106.987 90.0976C102.603 90.0976 99.0391 86.7001 99.0391 82.2007C99.0391 77.7014 102.641 74.3039 106.987 74.3039C111.333 74.3039 114.935 77.8621 114.935 82.2007ZM113.042 82.2007C113.042 78.8645 110.543 76.0715 106.987 76.0715C103.431 76.0715 100.932 78.8645 100.932 82.2007C100.932 85.537 103.707 88.33 106.987 88.33C110.267 88.33 113.042 85.6594 113.042 82.2007Z" fill="#4C4948"/>
<path d="M34.8735 100.412C33.7852 99.4483 32.2983 98.9279 30.8651 98.9279C27.4621 98.9279 24.8638 101.759 24.8638 105.118C24.8638 108.478 27.4391 111.271 30.8191 111.271C32.306 111.271 33.7392 110.704 34.8659 109.702V111.936C33.7009 112.617 32.2063 113 30.8804 113C26.55 113 22.9707 109.564 22.9707 105.187C22.9707 100.81 26.573 97.2062 31.0413 97.2062C32.3673 97.2062 33.7162 97.5276 34.8659 98.2316V100.42L34.8735 100.412Z" fill="#4C4948"/>
<path d="M48.9759 112.671H46.6842L42.2159 106.259H41.4341V112.671H39.541V97.52H41.8327C43.1816 97.52 44.6302 97.5429 45.8412 98.224C47.1058 98.9662 47.8339 100.397 47.8339 101.843C47.8339 104.017 46.3853 105.822 44.1933 106.083L48.9836 112.671H48.9759ZM41.4265 104.69H42.0319C43.9634 104.69 46.0558 104.33 46.0558 101.92C46.0558 99.5095 43.8024 99.2111 41.9323 99.2111H41.4265V104.698V104.69Z" fill="#4C4948"/>
<path d="M67.7163 105.095C67.7163 109.595 64.1524 112.992 59.7683 112.992C55.3843 112.992 51.8203 109.595 51.8203 105.095C51.8203 100.596 55.4226 97.1986 59.7683 97.1986C64.114 97.1986 67.7163 100.757 67.7163 105.095ZM65.8232 105.095C65.8232 101.759 63.3246 98.9662 59.7683 98.9662C56.212 98.9662 53.7134 101.759 53.7134 105.095C53.7134 108.432 56.4879 111.225 59.7683 111.225C63.0487 111.225 65.8232 108.554 65.8232 105.095Z" fill="#4C4948"/>
<path d="M78.6979 100.397C78.1307 99.4559 77.4103 98.9662 76.2606 98.9662C75.0496 98.9662 73.7237 99.7926 73.7237 101.116C73.7237 102.302 74.8887 102.922 75.8391 103.29L76.9274 103.71C79.0811 104.552 80.6906 105.738 80.6906 108.271C80.6906 111.026 78.5599 112.992 75.8391 112.992C73.3865 112.992 71.4703 111.186 71.1484 108.753L73.0569 108.348C73.0339 110.016 74.3675 111.225 75.9924 111.225C77.6172 111.225 78.7899 109.855 78.7899 108.271C78.7899 106.687 77.4792 105.937 76.1763 105.394L75.1263 104.95C73.3941 104.208 71.8229 103.221 71.8229 101.109C71.8229 98.6601 73.9996 97.1909 76.2913 97.1909C77.9851 97.1909 79.3724 98.0173 80.1924 99.4789L78.6826 100.382L78.6979 100.397Z" fill="#4C4948"/>
<path d="M91.9205 100.397C91.3534 99.4559 90.6329 98.9662 89.4833 98.9662C88.2723 98.9662 86.9463 99.7926 86.9463 101.116C86.9463 102.302 88.1113 102.922 89.0617 103.29L90.1501 103.71C92.3038 104.552 93.9133 105.738 93.9133 108.271C93.9133 111.026 91.7826 112.992 89.0617 112.992C86.6091 112.992 84.693 111.186 84.3711 108.753L86.2795 108.348C86.2565 110.016 87.5902 111.225 89.215 111.225C90.8399 111.225 92.0125 109.855 92.0125 108.271C92.0125 106.687 90.7019 105.937 89.3989 105.394L88.3489 104.95C86.6168 104.208 85.0456 103.221 85.0456 101.109C85.0456 98.6601 87.2223 97.1909 89.5139 97.1909C91.2078 97.1909 92.595 98.0173 93.4151 99.4789L91.9052 100.382L91.9205 100.397Z" fill="#4C4948"/>
</svg>
