<svg width="55" height="55" viewBox="0 0 55 55" fill="none" xmlns="http://www.w3.org/2000/svg">
<path d="M51.1579 1.71924H3.8772C2.94847 1.71924 2.1886 2.49268 2.1886 3.43799C2.1886 4.3833 2.94847 5.15674 3.8772 5.15674H5.56579V24.063C5.56579 26.8989 7.8454 29.2192 10.6316 29.2192H44.4035C47.1897 29.2192 49.4693 26.8989 49.4693 24.063V5.15674H51.1579C52.0866 5.15674 52.8465 4.3833 52.8465 3.43799C52.8465 2.49268 52.0866 1.71924 51.1579 1.71924ZM15.6974 20.6255C15.6974 21.5708 14.9375 22.3442 14.0088 22.3442C13.08 22.3442 12.3202 21.5708 12.3202 20.6255V15.4692C12.3202 14.5239 13.08 13.7505 14.0088 13.7505C14.9375 13.7505 15.6974 14.5239 15.6974 15.4692V20.6255ZM22.4518 20.6255C22.4518 21.5708 21.6919 22.3442 20.7632 22.3442C19.8344 22.3442 19.0746 21.5708 19.0746 20.6255V12.0317C19.0746 11.0864 19.8344 10.313 20.7632 10.313C21.6919 10.313 22.4518 11.0864 22.4518 12.0317V20.6255ZM29.2061 20.6255C29.2061 21.5708 28.4463 22.3442 27.5175 22.3442C26.5888 22.3442 25.829 21.5708 25.829 20.6255V17.188C25.829 16.2427 26.5888 15.4692 27.5175 15.4692C28.4463 15.4692 29.2061 16.2427 29.2061 17.188V20.6255ZM41.0263 20.6255H34.2719C33.3432 20.6255 32.5833 19.8521 32.5833 18.9067C32.5833 17.9614 33.3432 17.188 34.2719 17.188H41.0263C41.955 17.188 42.7149 17.9614 42.7149 18.9067C42.7149 19.8521 41.955 20.6255 41.0263 20.6255ZM41.0263 13.7505H34.2719C33.3432 13.7505 32.5833 12.9771 32.5833 12.0317C32.5833 11.0864 33.3432 10.313 34.2719 10.313H41.0263C41.955 10.313 42.7149 11.0864 42.7149 12.0317C42.7149 12.9771 41.955 13.7505 41.0263 13.7505Z" fill="#00AEA5"/>
<path d="M17.5844 45.3208C19.4673 44.0995 20.7268 41.9681 20.7268 39.5317C20.7268 35.7409 17.6977 32.6567 13.9725 32.6567C10.2472 32.6567 7.21807 35.7409 7.21807 39.5317C7.21807 41.9799 8.49094 44.1182 10.3893 45.3366C7.77345 46.261 5.5028 48.1427 4.08995 50.7272C3.79968 51.2593 3.80626 51.9088 4.1097 52.4342C4.41315 52.9596 4.96717 53.2817 5.56578 53.2817H22.4517C23.0504 53.2817 23.6044 52.9595 23.9078 52.434C24.2113 51.9086 24.2178 51.2591 23.9276 50.727C22.5068 48.1281 20.2187 46.2393 17.5844 45.3208Z" fill="#00AEA5"/>
<path d="M44.6019 45.3208C46.4849 44.0995 47.7444 41.9681 47.7444 39.5317C47.7444 35.7409 44.7152 32.6567 40.99 32.6567C37.2648 32.6567 34.2356 35.7409 34.2356 39.5317C34.2356 41.9799 35.5085 44.1182 37.4068 45.3366C34.791 46.261 32.5203 48.1427 31.1075 50.7272C30.8172 51.2593 30.8238 51.9088 31.1273 52.4342C31.4307 52.9596 31.9847 53.2817 32.5833 53.2817H49.4693C50.0679 53.2817 50.6219 52.9595 50.9254 52.434C51.2288 51.9086 51.2354 51.2591 50.9451 50.727C49.5243 48.1281 47.2363 46.2393 44.6019 45.3208Z" fill="#00AEA5"/>
</svg>
