<svg width="55" height="55" viewBox="0 0 55 55" fill="none" xmlns="http://www.w3.org/2000/svg">
<g clip-path="url(#clip0_0_289)">
<path d="M1.60893 42.0031H43.7202C44.0979 42.0031 44.4629 41.871 44.7525 41.6301C45.1569 41.2914 54.3835 33.3542 54.9461 16.2207H9.71943C9.15899 31.7733 0.661753 39.0835 0.573448 39.1564C0.055759 39.5939 -0.134709 40.3083 0.0981925 40.9441C0.329482 41.5782 0.932253 42.0031 1.60893 42.0031Z" fill="#00AEA5"/>
<path d="M53.3885 6.55227H45.3315V4.94087C45.3315 4.03848 44.6225 3.32947 43.7201 3.32947C42.8177 3.32947 42.1087 4.03848 42.1087 4.94087V6.55227H33.9443V4.94087C33.9443 4.03848 33.2352 3.32947 32.3329 3.32947C31.4305 3.32947 30.7215 4.03848 30.7215 4.94087V6.55227H22.6645V4.94087C22.6645 4.03848 21.9554 3.32947 21.0531 3.32947C20.1507 3.32947 19.4417 4.03848 19.4417 4.94087V6.55227H11.3847C10.4823 6.55227 9.77325 7.26128 9.77325 8.16367V12.9979H54.9999V8.16367C54.9999 7.26128 54.2909 6.55227 53.3885 6.55227Z" fill="#00AEA5"/>
<path d="M46.8218 44.1008C45.9468 44.8294 44.8485 45.226 43.7202 45.226H9.77338V50.0602C9.77338 50.9509 10.4941 51.6716 11.3848 51.6716H53.3886C54.2793 51.6716 55 50.9509 55 50.0602V31.9968C51.8932 39.6189 47.5579 43.4847 46.8218 44.1008Z" fill="#00AEA5"/>
</g>
<defs>
<clipPath id="clip0_0_289">
<rect width="55" height="55" fill="white" transform="translate(0 0.000488281)"/>
</clipPath>
</defs>
</svg>
