<?xml version="1.0" encoding="UTF-8"?>
<svg id="_レイヤー_1" data-name="レイヤー 1" xmlns="http://www.w3.org/2000/svg" viewBox="0 0 400.47 415.02">
  <defs>
    <style>
      .cls-1 {
        fill: #14a59d;
        stroke-width: 0px;
      }
    </style>
  </defs>
  <path class="cls-1" d="M81.27,84.9c23.45,0,42.45-19,42.45-42.45S104.72,0,81.27,0s-42.45,19-42.45,42.45,19,42.45,42.45,42.45Z"/>
  <path class="cls-1" d="M177.42,316.73c-.94-4.71-4.25-8.41-8.53-10.06,4.84-2.1,8.24-6.91,8.24-12.53,0-7.54-6.1-13.65-13.64-13.65H46.58l-19.4-146.82c-1-7.47-7.85-12.73-15.32-11.74-7.47.99-12.72,7.85-11.74,15.32l20.98,158.68c.85,6.34,6.03,11.03,12.28,11.63-3.46,1.89-6.15,5.08-6.96,9.17l-16.2,82c-1.45,7.39,3.35,14.57,10.74,16.03,7.39,1.47,14.57-3.35,16.03-10.74l14.02-71h101.81l14.02,71c1.47,7.39,8.64,12.2,16.04,10.74,7.39-1.46,12.2-8.64,10.74-16.03l-16.2-82Z"/>
  <path class="cls-1" d="M396.48,178.35c-2.55-2.54-6.06-3.99-9.65-3.99h-157.68c-3.59,0-7.1,1.45-9.65,3.99-2.54,2.54-3.99,6.05-3.99,9.65v45.9l-4.31-7.69c-4.8-8.58-13.97-13.95-23.81-13.95h-81.87v-52.51l36.07,17.44c7.77,3.76,16.93,2.82,23.77-2.45l39.41-30.32c9.96-7.66,11.82-21.94,4.16-31.89-7.66-9.95-21.93-11.81-31.89-4.16l-28.28,21.76-50.77-24.55c-4.96-5.24-11.95-8.56-19.76-8.56-15.07,0-27.28,12.22-27.28,27.29v115.22c0,7.18,2.91,14.21,8,19.29,5.08,5.08,12.1,7.99,19.29,7.99h93.16l34.64,61.85c2.33,4.18,5.67,7.4,9.47,9.75v61.82c0,7.53,6.11,13.64,13.64,13.64s13.65-6.11,13.65-13.64v-60.93c.12-.06.25-.09.37-.16,13.14-7.36,17.83-23.99,10.47-37.14l-10.84-19.37v-53.72h130.38v171.32c0,7.53,6.1,13.64,13.64,13.64s13.64-6.11,13.64-13.64v-212.26c0-3.59-1.46-7.1-4-9.65Z"/>
  <path class="cls-1" d="M263.19,163.74h84.91c3.39,0,6.49-1.87,8.06-4.87l33.35-63.68c2.33-4.45.61-9.95-3.84-12.28-4.45-2.33-9.95-.61-12.29,3.84l-30.79,58.8h-79.4c-5.03,0-9.09,4.07-9.09,9.09s4.06,9.1,9.09,9.1Z"/>
</svg>