<svg width="56" height="55" viewBox="0 0 56 55" fill="none" xmlns="http://www.w3.org/2000/svg">
<g clip-path="url(#clip0_0_311)">
<path d="M34.8444 9.66007C37.5088 9.83818 39.8131 7.82273 39.9912 5.15834C40.1693 2.49396 38.1539 0.189545 35.4895 0.0114399C32.8251 -0.166666 30.5208 1.84878 30.3427 4.51317C30.1645 7.17755 32.18 9.48186 34.8444 9.66007Z" fill="#00AEA5"/>
<path d="M19.9059 30.0895C19.6234 29.9713 19.3645 29.8203 19.1317 29.6431L15.9937 36.4478L13.644 35.3642C12.7296 34.9425 11.6464 35.342 11.2248 36.2565L5.02269 49.7057C4.60106 50.6202 5.00045 51.7032 5.91494 52.125L6.71448 52.4937C6.58052 52.6183 6.46773 52.7701 6.3863 52.9466C6.05158 53.6726 6.36869 54.5324 7.09454 54.8672C7.82049 55.202 8.6803 54.8848 9.01502 54.1589C9.09634 53.9825 9.13856 53.7982 9.1464 53.6152L9.94594 53.984C10.8604 54.4056 11.9436 54.0062 12.3652 53.0918L18.5673 39.6424C18.945 38.8233 18.6625 37.8704 17.9425 37.3772L21.1785 30.36C20.753 30.3502 20.3223 30.2635 19.9059 30.0895Z" fill="#00AEA5"/>
<path d="M49.4772 20.7557L42.9241 19.1064L39.9647 15.6974L40.0245 14.8027C40.1448 13.0028 38.7834 11.4462 36.9835 11.3259L31.1719 10.9372C29.438 10.8213 27.9303 12.0809 27.7145 13.7826L29.0422 13.4011L23.6793 16.2664C23.2312 16.5058 22.8794 16.8925 22.6835 17.3612L19.2238 25.6361C18.7538 26.7602 19.284 28.0524 20.4082 28.5225C21.5252 28.9896 22.8215 28.4693 23.2946 27.3381L26.4513 19.7879L31.1216 17.2927L27.6952 20.1883L27.2008 21.3707L26.5771 30.699L26.6085 30.701C26.6114 30.8078 26.9239 37.0516 27.0762 40.1153L21.9184 51.239C21.3033 52.5654 21.8801 54.1393 23.2065 54.7543C24.5328 55.3693 26.1067 54.7926 26.7218 53.4663L32.1545 41.7498C32.335 41.3605 32.4182 40.933 32.3968 40.5044L31.9259 31.0566L33.1193 31.1364L36.0486 39.8475L37.1604 52.5828C37.2876 54.0408 38.5729 55.1173 40.0279 54.9899C41.4846 54.8629 42.5621 53.579 42.4351 52.1224L41.2958 39.0727C41.2776 38.8639 41.2346 38.6578 41.1678 38.4591L38.8338 31.5186L38.9067 31.5234L39.547 21.9468L40.0472 22.523C40.3431 22.8639 40.7368 23.106 41.1747 23.2161L48.4005 25.0347C49.5796 25.3318 50.7806 24.6173 51.0783 23.4338C51.3757 22.252 50.6588 21.0531 49.4772 20.7557Z" fill="#00AEA5"/>
</g>
<defs>
<clipPath id="clip0_0_311">
<rect width="55" height="55" fill="white" transform="translate(0.5 0.000488281)"/>
</clipPath>
</defs>
</svg>
