<svg width="55" height="55" viewBox="0 0 55 55" fill="none" xmlns="http://www.w3.org/2000/svg">
<path d="M12.4558 40.5389H42.5459C44.8027 40.5389 46.6366 38.7102 46.6366 36.45V11.7361C46.6366 6.08656 42.0578 1.50781 36.41 1.50781H18.59C12.9439 1.50781 8.36516 6.08656 8.36516 11.7361V36.45C8.36516 38.7084 10.1973 40.5389 12.4558 40.5389ZM38.5791 34.9152C37.0734 34.9152 35.8514 33.6931 35.8514 32.1858C35.8514 30.6819 37.0734 29.4598 38.5791 29.4598C40.0864 29.4598 41.3067 30.6819 41.3067 32.1858C41.3067 33.6948 40.0864 34.9152 38.5791 34.9152ZM41.305 12.0747V23.3239H29.6484V12.0747H41.305ZM13.695 12.0747H25.3498V23.3239H13.695V12.0747ZM16.4227 29.4616C17.9283 29.4616 19.1486 30.6836 19.1486 32.1875C19.1486 33.6948 17.9283 34.9169 16.4227 34.9169C14.9153 34.9169 13.695 33.6948 13.695 32.1875C13.695 30.6836 14.9153 29.4616 16.4227 29.4616Z" fill="#00AEA5"/>
<path d="M43.4053 53.4932H48.5461L40.9922 43.6069H35.8497L37.9019 46.2933H17.0964L19.1486 43.6069H14.0078L6.45391 53.4932H11.593L14.2502 50.0162H40.7498L43.4053 53.4932Z" fill="#00AEA5"/>
</svg>
