<svg width="200" height="99" viewBox="0 0 200 99" fill="none" xmlns="http://www.w3.org/2000/svg">
<path d="M101.073 26.0679C100.713 25.4475 100.288 24.827 99.8641 24.173C97.0552 19.927 93.2319 16.2679 88.7578 13.5898C87.2217 12.6743 85.196 13.164 84.2821 14.7C83.3346 16.2679 83.8578 18.2602 85.3922 19.1757C89.0848 21.396 92.1217 24.3038 94.4409 27.7986C95.0614 28.7141 95.5846 29.5962 96.0743 30.4129C93.7232 31.7192 90.5219 32.9937 87.091 32.9937C84.2486 32.9937 81.7013 32.1116 79.4794 30.3794C70.5614 23.3898 64.2578 5.55397 63.9962 4.8027C63.6692 3.88714 63.7681 2.87428 64.2897 2.02572C64.7794 1.20905 65.6295 0.620475 66.6089 0.489681C66.7397 0.489681 70.1371 0 74.809 0C82.8114 0 93.7232 1.37175 100.158 7.93857C106.299 14.1768 102.641 22.9975 101.073 26.0679ZM127.076 16.6603C126.913 16.5949 123.222 15.1578 118.909 15.1578C114.433 15.1578 110.71 16.6922 108.193 19.6319C104.83 23.5206 104.96 28.1256 105.515 31.0014C104.992 31.3603 104.471 31.7192 103.979 32.1435C103.327 30.1848 102.38 28.191 101.073 26.0679C100.778 26.6884 100.55 27.0473 100.485 27.1462C100.322 27.4397 100.092 27.7013 99.7987 27.9294C99.5052 28.159 98.1319 29.3027 96.0743 30.4129C99.014 35.541 99.3091 39.2973 97.3487 45.7333H104.11C104.601 43.8719 104.895 42.1397 105.026 40.5063C106.235 38.9719 107.9 37.077 109.859 36.096C111.004 36.3911 112.637 36.7181 114.465 36.7181C118.06 36.7181 121.097 35.4102 123.222 32.9602C127.956 27.4732 129.07 20.4821 129.101 20.1886C129.328 18.686 128.479 17.2154 127.076 16.6603ZM129.133 52.2667H60.5333C56.9397 52.2667 54 55.2063 54 58.8V91.4667C54 95.0603 56.9397 98 60.5333 98H129.133C132.725 98 135.667 95.0603 135.667 91.4667V58.8C135.667 55.2063 132.725 52.2667 129.133 52.2667ZM102.641 76.604L96.1078 89.6706C95.5527 90.8127 94.409 91.4667 93.2 91.4667C92.7103 91.4667 92.2206 91.3694 91.7294 91.1078C90.1295 90.323 89.4756 88.3627 90.2922 86.7294L94.4409 78.4H89.9333C88.7897 78.4 87.7449 77.8114 87.1563 76.864C86.5694 75.8846 86.504 74.6756 87.0256 73.6627L93.5589 60.596C94.3437 58.9962 96.304 58.3422 97.9373 59.1589C99.5371 59.9437 100.191 61.904 99.3744 63.5373L95.2257 71.8667H99.7333C100.877 71.8667 101.922 72.4552 102.51 73.4027C103.097 74.3821 103.163 75.5911 102.641 76.604ZM145.467 65.3333H142.2V84.9333H145.467C149.059 84.9333 152 81.9937 152 78.4V71.8667C152 68.273 149.059 65.3333 145.467 65.3333Z" fill="url(#paint0_linear_177_1799)"/>
<g clip-path="url(#clip0_177_1799)">
<path d="M35.0782 30.0128C35.3911 30.3807 35.5451 30.8579 35.5063 31.3393C35.4674 31.8207 35.2389 32.267 34.871 32.58C29.7204 36.9613 26.5213 43.2092 25.9774 49.9493C25.4335 56.6894 27.5893 63.3695 31.9706 68.5201L35.0268 72.1128L35.6966 63.653C35.7159 63.4137 35.7822 63.1804 35.8916 62.9667C36.0011 62.753 36.1516 62.5629 36.3345 62.4073C36.5174 62.2517 36.7291 62.1336 36.9577 62.0599C37.1862 61.9861 37.427 61.9581 37.6664 61.9774C37.9057 61.9967 38.1389 62.063 38.3527 62.1725C38.5664 62.2819 38.7565 62.4324 38.9121 62.6153C39.0677 62.7982 39.1858 63.01 39.2595 63.2385C39.3333 63.467 39.3613 63.7078 39.342 63.9472L38.3061 76.7829C38.2816 77.0214 38.2103 77.2528 38.0962 77.4636C37.9925 77.6783 37.8452 77.8689 37.6637 78.0233C37.4822 78.1778 37.2704 78.2926 37.0419 78.3604C36.8155 78.4393 36.5757 78.4726 36.3363 78.4585L23.5006 77.4227C23.0172 77.3837 22.5691 77.1542 22.2549 76.7848C21.9406 76.4154 21.786 75.9363 21.825 75.4529C21.864 74.9695 22.0935 74.5214 22.4629 74.2072C22.8323 73.8929 23.3114 73.7383 23.7948 73.7773L32.2525 74.4728L29.1963 70.88C24.1891 64.9937 21.7253 57.3593 22.3469 49.6563C22.9685 41.9534 26.6247 34.8129 32.511 29.8056C32.8789 29.4927 33.3561 29.3387 33.8375 29.3775C34.3189 29.4164 34.7652 29.6449 35.0782 30.0128Z" fill="#0D9F98"/>
</g>
<g clip-path="url(#clip1_177_1799)">
<path d="M164.094 79.1597C163.781 78.7918 163.627 78.3147 163.666 77.8333C163.704 77.3518 163.933 76.9055 164.301 76.5926C169.451 72.2112 172.651 65.9633 173.194 59.2232C173.738 52.4831 171.583 45.8031 167.201 40.6525L164.145 37.0597L163.475 45.5195C163.456 45.7589 163.39 45.9921 163.28 46.2059C163.171 46.4196 163.02 46.6097 162.837 46.7653C162.655 46.9209 162.443 47.0389 162.214 47.1127C161.986 47.1864 161.745 47.2144 161.506 47.1951C161.266 47.1758 161.033 47.1095 160.819 47.0001C160.605 46.8907 160.415 46.7402 160.26 46.5573C160.104 46.3744 159.986 46.1626 159.912 45.9341C159.839 45.7055 159.811 45.4647 159.83 45.2254L160.866 32.3896C160.89 32.1511 160.962 31.9198 161.076 31.7089C161.179 31.4943 161.327 31.3036 161.508 31.1492C161.69 30.9948 161.901 30.88 162.13 30.8121C162.356 30.7333 162.596 30.7 162.836 30.714L175.671 31.7499C176.155 31.7889 176.603 32.0183 176.917 32.3877C177.231 32.7571 177.386 33.2362 177.347 33.7196C177.308 34.203 177.078 34.6511 176.709 34.9654C176.34 35.2796 175.861 35.4342 175.377 35.3952L166.919 34.6998L169.976 38.2925C174.983 44.1789 177.447 51.8133 176.825 59.5162C176.203 67.2191 172.547 74.3597 166.661 79.3669C166.293 79.6799 165.816 79.8339 165.334 79.795C164.853 79.7561 164.407 79.5276 164.094 79.1597Z" fill="#0D9F98"/>
</g>
<defs>
<linearGradient id="paint0_linear_177_1799" x1="77" y1="57.5" x2="40" y2="98" gradientUnits="userSpaceOnUse">
<stop stop-color="white"/>
<stop offset="1" stop-color="white" stop-opacity="0"/>
</linearGradient>
<clipPath id="clip0_177_1799">
<rect width="57.5842" height="57.5842" fill="white" transform="translate(0 54.311) rotate(-40.3862)"/>
</clipPath>
<clipPath id="clip1_177_1799">
<rect width="57.5842" height="57.5842" fill="white" transform="translate(199.172 54.8616) rotate(139.614)"/>
</clipPath>
</defs>
</svg>
