<svg width="131" height="116" viewBox="0 0 131 116" fill="none" xmlns="http://www.w3.org/2000/svg">
<path d="M110.132 100.673C109.421 99.0041 109.028 97.1688 109.028 95.2436C109.028 88.145 114.369 82.2747 121.243 81.4298V64.7728L95.7082 50.0309L80.0425 59.0755C80.3568 60.2356 80.5273 61.4547 80.5273 62.7129C80.5273 69.1562 76.1264 74.589 70.1738 76.1691V94.2581L95.7082 109L110.132 100.673Z" fill="white"/>
<path d="M63.8363 76.9435C62.0358 76.7241 60.2496 76.147 58.5824 75.1845C52.4349 71.6352 50.0217 64.0742 52.7266 57.6994L38.3012 49.3709L12.7672 64.1134L12.7671 82.2026C13.9289 82.5104 15.07 82.9724 16.1596 83.6015C21.7397 86.8231 24.2442 93.3508 22.6363 99.2959L38.3019 108.34L63.8359 93.5979L63.8363 76.9435Z" fill="url(#paint0_linear_125_1409)"/>
<path d="M66.6063 48.7919C70.3627 48.7919 73.7739 50.2904 76.2812 52.717L90.9848 44.2272V26.4292C84.8542 24.9739 80.2779 19.4562 80.2779 12.8865C80.2779 11.5011 80.4842 10.163 80.8634 8.89899L65.4504 0L49.4479 9.23912C49.6882 10.2628 49.8196 11.3281 49.8196 12.4233C49.8196 18.7028 45.6391 24.0225 39.916 25.7514V44.2272L56.1132 53.5794C58.6679 50.6488 62.4225 48.7919 66.6063 48.7919Z" fill="white"/>
<path d="M86.709 12.8865C86.709 17.0179 90.0695 20.3785 94.2001 20.3785C98.3315 20.3785 101.692 17.0179 101.692 12.8865C101.692 8.75596 98.3307 5.39545 94.2001 5.39545C90.0695 5.39545 86.709 8.75596 86.709 12.8865Z" fill="#0D9F98"/>
<path d="M66.6052 70.2048C70.7358 70.2048 74.0963 66.8443 74.0963 62.7129C74.0963 58.5823 70.7358 55.2218 66.6052 55.2218C62.4738 55.2218 59.1133 58.5823 59.1133 62.7129C59.1133 66.8443 62.4738 70.2048 66.6052 70.2048Z" fill="#0D9F98"/>
<path d="M8.49192 102.983C12.6225 102.983 15.983 99.6225 15.983 95.4911C15.983 91.3605 12.6225 88 8.49192 88C4.36051 88 1 91.3605 1 95.4911C1 99.6225 4.36051 102.983 8.49192 102.983Z" fill="#0D9F98"/>
<path d="M122.949 87.7517C118.818 87.7517 115.457 91.1122 115.457 95.2436C115.457 99.3742 118.818 102.735 122.949 102.735C127.08 102.735 130.44 99.3742 130.44 95.2436C130.44 91.1122 127.08 87.7517 122.949 87.7517Z" fill="#0D9F98"/>
<path d="M35.8973 19.9144C40.0287 19.9144 43.3893 16.5539 43.3893 12.4233C43.3893 8.29274 40.0287 4.9314 35.8973 4.9314C31.7668 4.9314 28.4062 8.29274 28.4062 12.4233C28.4062 16.5539 31.7668 19.9144 35.8973 19.9144Z" fill="#0D9F98"/>
<defs>
<linearGradient id="paint0_linear_125_1409" x1="41" y1="74" x2="2.5" y2="104.5" gradientUnits="userSpaceOnUse">
<stop offset="0.00616806" stop-color="white"/>
<stop offset="1" stop-color="white" stop-opacity="0"/>
</linearGradient>
</defs>
</svg>
