<svg width="133" height="107" viewBox="0 0 133 107" fill="none" xmlns="http://www.w3.org/2000/svg">
<path d="M117.893 27.6409C118.161 24.0348 116.972 20.3417 114.215 17.5843C110.475 13.8447 105.01 12.8981 100.385 14.723C94.1246 6.37179 84.1769 0.943726 72.9363 0.943726C61.0684 0.943726 50.6097 6.96873 44.446 16.1249C42.1328 14.6695 39.4034 13.8146 36.4689 13.8146C28.9032 13.8146 22.6618 19.4157 21.622 26.694C21.5648 26.6938 21.5097 26.6855 21.4526 26.6855C18.4785 26.6855 15.6458 27.2907 13.0707 28.3848C5.38843 31.6488 0.822266 39.2638 0.822266 48.1372C0.822266 59.9846 9.6052 67.923 21.4523 67.923H111.549C111.549 67.923 119.815 68.4052 124.425 65.2986C129.035 62.192 133.001 55.1534 133.001 48.1372C133.001 38.4983 126.643 30.3461 117.893 27.6409Z" fill="url(#paint0_linear_104_1738)"/>
<path d="M49.5242 54.3951C42.1648 54.3951 36.1777 48.408 36.1777 41.0486C36.1777 33.6892 42.1648 27.7021 49.5242 27.7021C52.2014 27.7021 54.7845 28.4918 56.9904 29.9834C57.9708 30.6473 58.2285 31.9796 57.5645 32.9623C56.9005 33.9406 55.5682 34.2025 54.5855 33.5364C53.0919 32.5267 51.3426 31.9924 49.5242 31.9924C44.53 31.9924 40.468 36.0543 40.468 41.0486C40.468 46.0428 44.53 50.1048 49.5242 50.1048C51.4055 50.1048 52.9955 49.5393 54.246 48.4246C54.4933 48.2046 54.7237 47.9659 54.9372 47.7124C55.6955 46.8032 57.053 46.6837 57.958 47.4443C58.8672 48.2046 58.9867 49.558 58.2261 50.4651C57.8783 50.882 57.5014 51.2717 57.099 51.6299C55.0674 53.4378 52.4487 54.3951 49.5242 54.3951Z" fill="#00AEA5"/>
<path d="M96.2054 52.4156C93.7062 52.4156 93.5031 52.3486 93.2202 52.2543C92.5604 52.0363 91.9925 51.4667 91.7894 50.8004C91.4416 49.6566 91.9863 48.9422 92.8139 47.859C93.4613 47.0127 94.6406 45.4666 96.6309 42.624C97.2551 41.7317 97.5149 41.1072 97.6175 40.7207L97.6427 40.5279C97.5923 39.9749 97.1273 39.5403 96.5618 39.5403C96.0444 39.5403 95.596 39.9079 95.4976 40.4149C95.2672 41.5787 94.1548 42.3338 92.9752 42.1034C91.8146 41.874 91.0584 40.7459 91.2868 39.5832C91.7832 37.0725 94.0018 35.25 96.5616 35.25C99.5258 35.25 101.937 37.6611 101.937 40.6256C101.928 40.9087 101.874 41.3192 101.822 41.5976C101.57 42.6827 101.005 43.856 100.146 45.0834C99.2826 46.3152 98.5703 47.3104 97.9817 48.1146C98.74 48.1084 99.5361 48.1022 100.301 48.0915C101.459 48.0622 102.458 49.0259 102.473 50.2094C102.488 51.3952 101.539 52.367 100.355 52.3818C98.5223 52.4049 97.1858 52.4156 96.2054 52.4156Z" fill="#00AEA5"/>
<path d="M75.1376 54.3951C67.7761 54.3951 61.7891 48.408 61.7891 41.0486C61.7891 33.6892 67.7761 27.7021 75.1376 27.7021C82.4971 27.7021 88.4841 33.6892 88.4841 41.0486C88.4841 48.408 82.4968 54.3951 75.1376 54.3951ZM75.1376 31.9924C70.1434 31.9924 66.0793 36.0543 66.0793 41.0486C66.0793 46.0428 70.1434 50.1048 75.1376 50.1048C80.1319 50.1048 84.1938 46.0428 84.1938 41.0486C84.1938 36.0543 80.1319 31.9924 75.1376 31.9924Z" fill="#00AEA5"/>
<path d="M40.1299 85.2333C39.2919 84.3953 37.9344 84.3953 37.0967 85.2333L34.3232 88.0068V65.2983C34.3232 64.1125 33.3636 63.1532 32.178 63.1532C30.9922 63.1532 30.0329 64.1128 30.0329 65.2983V88.0068L27.2593 85.2333C26.4213 84.3953 25.0638 84.3953 24.2261 85.2333C23.3883 86.0713 23.3881 87.4288 24.2261 88.2666L30.6615 94.702C31.0805 95.121 31.6294 95.3304 32.1783 95.3304C32.7272 95.3304 33.276 95.121 33.695 94.702L40.1305 88.2666C40.968 87.4288 40.968 86.0713 40.1299 85.2333Z" fill="#0D9F98"/>
<path d="M54.2572 95.9593L51.4837 98.7328V65.2983C51.4837 64.1125 50.5241 63.1532 49.3385 63.1532C48.153 63.1532 47.1934 64.1128 47.1934 65.2983V98.7328L44.4196 95.9593C43.5816 95.1213 42.2241 95.1213 41.3863 95.9593C40.5483 96.7973 40.5483 98.1548 41.3863 98.9925L47.8217 105.428C48.2408 105.847 48.7896 106.056 49.3385 106.056C49.8874 106.056 50.4363 105.847 50.8553 105.428L57.2907 98.9925C58.1287 98.1545 58.1287 96.797 57.2907 95.9593C56.4527 95.1213 55.0952 95.1213 54.2572 95.9593Z" fill="#EEEEEE"/>
<path d="M74.4523 85.2333C73.6143 84.3953 72.2568 84.3953 71.419 85.2333L68.6455 88.0068V65.2983C68.6455 64.1125 67.6859 63.1532 66.5004 63.1532C65.3148 63.1532 64.3552 64.1128 64.3552 65.2983V88.0068L61.5817 85.2333C60.7437 84.3953 59.3862 84.3953 58.5484 85.2333C57.7104 86.0713 57.7104 87.4288 58.5484 88.2666L64.9839 94.702C65.4029 95.121 65.9517 95.3304 66.5006 95.3304C67.0495 95.3304 67.5984 95.121 68.0174 94.702L74.4528 88.2666C75.2903 87.4288 75.2903 86.0713 74.4523 85.2333Z" fill="#0D9F98"/>
<path d="M108.775 85.2333C107.937 84.3953 106.579 84.3953 105.741 85.2333L102.968 88.0068V65.2983C102.968 64.1125 102.008 63.1532 100.823 63.1532C99.6371 63.1532 98.6775 64.1128 98.6775 65.2983V88.0068L95.904 85.2333C95.066 84.3953 93.7084 84.3953 92.8707 85.2333C92.0327 86.0713 92.0327 87.4288 92.8707 88.2666L99.3061 94.702C99.7251 95.121 100.274 95.3304 100.823 95.3304C101.372 95.3304 101.921 95.121 102.34 94.702L108.775 88.2666C109.613 87.4288 109.613 86.0713 108.775 85.2333Z" fill="#0D9F98"/>
<path d="M88.5811 95.9593L85.8076 98.7328V65.2983C85.8076 64.1125 84.848 63.1532 83.6625 63.1532C82.4769 63.1532 81.5173 64.1128 81.5173 65.2983V98.7328L78.7438 95.9593C77.9058 95.1213 76.5483 95.1213 75.7105 95.9593C74.8725 96.7973 74.8725 98.1548 75.7105 98.9925L82.146 105.428C82.565 105.847 83.1139 106.056 83.6627 106.056C84.2116 106.056 84.7605 105.847 85.1795 105.428L91.6149 98.9925C92.4529 98.1545 92.4529 96.797 91.6149 95.9593C90.7767 95.1213 89.4191 95.1213 88.5811 95.9593Z" fill="#EEEEEE"/>
<defs>
<linearGradient id="paint0_linear_104_1738" x1="45.8625" y1="39.7414" x2="5.73318" y2="65.5388" gradientUnits="userSpaceOnUse">
<stop stop-color="white"/>
<stop offset="1" stop-color="white" stop-opacity="0"/>
</linearGradient>
</defs>
</svg>
